REM MD5 3367da1d2a23beb7a9fc52ec3b1c9994
FILE "Adidas Power Soccer (UK) (En,Fr,De,Es,It) (Demo).bin" BINARY
  TRACK 01 MODE2/2352
    INDEX 01 00:00:00
  TRACK 02 AUDIO
    INDEX 00 48:45:58
    INDEX 01 48:47:58
  TRACK 03 AUDIO
    INDEX 00 52:53:68
    INDEX 01 52:55:68
  TRACK 04 AUDIO
    INDEX 00 56:41:18
    INDEX 01 56:43:18
REM LEADOUT 59:48:37
